{
 "cells": [
  {
   "cell_type": "code",
   "execution_count": 36,
   "metadata": {},
   "outputs": [],
   "source": [
    "import os\n",
    "from PIL import Image\n",
    "import subprocess\n",
    "import shutil\n",
    "import glob"
   ]
  },
  {
   "cell_type": "markdown",
   "metadata": {},
   "source": [
    "## MOV"
   ]
  },
  {
   "cell_type": "code",
   "execution_count": null,
   "metadata": {},
   "outputs": [
    {
     "name": "stderr",
     "output_type": "stream",
     "text": [
      "ffmpeg version 7.1 Copyright (c) 2000-2024 the FFmpeg developers\n",
      "  built with Apple clang version 16.0.0 (clang-1600.0.26.4)\n",
      "  configuration: --prefix=/opt/homebrew/Cellar/ffmpeg/7.1_3 --enable-shared --enable-pthreads --enable-version3 --cc=clang --host-cflags= --host-ldflags='-Wl,-ld_classic' --enable-ffplay --enable-gnutls --enable-gpl --enable-libaom --enable-libaribb24 --enable-libbluray --enable-libdav1d --enable-libharfbuzz --enable-libjxl --enable-libmp3lame --enable-libopus --enable-librav1e --enable-librist --enable-librubberband --enable-libsnappy --enable-libsrt --enable-libssh --enable-libsvtav1 --enable-libtesseract --enable-libtheora --enable-libvidstab --enable-libvmaf --enable-libvorbis --enable-libvpx --enable-libwebp --enable-libx264 --enable-libx265 --enable-libxml2 --enable-libxvid --enable-lzma --enable-libfontconfig --enable-libfreetype --enable-frei0r --enable-libass --enable-libopencore-amrnb --enable-libopencore-amrwb --enable-libopenjpeg --enable-libspeex --enable-libsoxr --enable-libzmq --enable-libzimg --disable-libjack --disable-indev=jack --enable-videotoolbox --enable-audiotoolbox --enable-neon\n",
      "  libavutil      59. 39.100 / 59. 39.100\n",
      "  libavcodec     61. 19.100 / 61. 19.100\n",
      "  libavformat    61.  7.100 / 61.  7.100\n",
      "  libavdevice    61.  3.100 / 61.  3.100\n",
      "  libavfilter    10.  4.100 / 10.  4.100\n",
      "  libswscale      8.  3.100 /  8.  3.100\n",
      "  libswresample   5.  3.100 /  5.  3.100\n",
      "  libpostproc    58.  3.100 / 58.  3.100\n",
      "Input #0, image2, from 'contour/_seq/frame_%04d.png':\n",
      "  Duration: 00:00:04.13, start: 0.000000, bitrate: N/A\n",
      "  Stream #0:0: Video: png, rgba(pc, gbr/unknown/unknown), 2100x1500 [SAR 11811:11811 DAR 7:5], 15 fps, 15 tbr, 15 tbn\n",
      "Stream mapping:\n",
      "  Stream #0:0 -> #0:0 (png (native) -> prores (prores_ks))\n",
      "Press [q] to stop, [?] for help\n",
      "Output #0, mov, to 'contour.mov':\n",
      "  Metadata:\n",
      "    encoder         : Lavf61.7.100\n",
      "  Stream #0:0: Video: prores (4444) (ap4h / 0x68347061), yuva444p10le(tv, progressive), 2100x1500 [SAR 1:1 DAR 7:5], q=2-31, 200 kb/s, 15 fps, 15360 tbn\n",
      "      Metadata:\n",
      "        encoder         : Lavc61.19.100 prores_ks\n",
      "[out#0/mov @ 0x138a04480] video:17286KiB audio:0KiB subtitle:0KiB other streams:0KiB global headers:0KiB muxing overhead: 0.006107%\n",
      "frame=   62 fps=0.0 q=-0.0 Lsize=   17287KiB time=00:00:04.13 bitrate=34262.7kbits/s speed= 4.7x    \n"
     ]
    },
    {
     "data": {
      "text/plain": [
       "CompletedProcess(args=['ffmpeg', '-y', '-framerate', '15', '-i', 'contour/_seq/frame_%04d.png', '-c:v', 'prores_ks', '-profile:v', '4', '-pix_fmt', 'yuva444p10le', 'contour.mov'], returncode=0)"
      ]
     },
     "execution_count": 37,
     "metadata": {},
     "output_type": "execute_result"
    }
   ],
   "source": [
    "image_folder = \"contour\"\n",
    "temp_folder = os.path.join(image_folder, \"_seq\")\n",
    "output_mov = \"contour.mov\"\n",
    "\n",
    "if os.path.isdir(temp_folder):\n",
    "    shutil.rmtree(temp_folder)\n",
    "os.makedirs(temp_folder, exist_ok=True)\n",
    "files = sorted(glob.glob(os.path.join(image_folder, \"ord*.png\")))\n",
    "\n",
    "i = 0\n",
    "for src in files:\n",
    "    i += 1\n",
    "    dst = os.path.join(temp_folder, f\"frame_{i:04d}.png\")\n",
    "    shutil.copy2(src, dst)\n",
    "\n",
    "cmd = [\n",
    "    \"ffmpeg\",\n",
    "    \"-y\",\n",
    "    \"-framerate\", \"15\",\n",
    "    \"-i\", os.path.join(temp_folder, \"frame_%04d.png\"),\n",
    "    \"-c:v\", \"prores_ks\",\n",
    "    \"-profile:v\", \"4\",            # 4444 XQ\n",
    "    \"-pix_fmt\", \"yuva444p10le\",   # 10-bit + alpha\n",
    "    output_mov\n",
    "]\n",
    "subprocess.run(cmd, check=True)"
   ]
  }
 ],
 "metadata": {
  "kernelspec": {
   "display_name": "Python 3",
   "language": "python",
   "name": "python3"
  },
  "language_info": {
   "codemirror_mode": {
    "name": "ipython",
    "version": 3
   },
   "file_extension": ".py",
   "mimetype": "text/x-python",
   "name": "python",
   "nbconvert_exporter": "python",
   "pygments_lexer": "ipython3",
   "version": "3.11.10"
  },
  "orig_nbformat": 4
 },
 "nbformat": 4,
 "nbformat_minor": 2
}
